<?xml version="1.0" standalone="no"?>
<!DOCTYPE svg PUBLIC "-//W3C//DTD SVG 20010904//EN"
 "http://www.w3.org/TR/2001/REC-SVG-20010904/DTD/svg10.dtd">
<svg version="1.0" xmlns="http://www.w3.org/2000/svg"
 width="700.000000pt" height="700.000000pt" viewBox="0 0 700.000000 700.000000"
 preserveAspectRatio="xMidYMid meet">
<metadata>
Created by potrace 1.14, written by Peter Selinger 2001-2017
</metadata>
<g transform="translate(0.000000,700.000000) scale(0.100000,-0.100000)"
fill="#000000" stroke="none">
<path d="M1095 6989 c-563 -72 -1015 -530 -1085 -1099 -14 -117 -14 -4663 0
-4780 71 -576 524 -1029 1100 -1100 117 -14 4663 -14 4780 0 576 71 1029 524
1100 1100 14 117 14 4663 0 4780 -45 363 -248 694 -547 894 -170 113 -354 181
-553 206 -106 13 -4692 12 -4795 -1z m65 -2775 l0 -446 62 56 c114 101 239
146 410 146 127 0 184 -13 294 -65 73 -35 103 -57 152 -109 151 -162 218 -349
229 -646 8 -231 -21 -408 -92 -559 -121 -254 -314 -381 -580 -381 -171 0 -315
54 -425 160 l-58 56 -7 -93 -7 -93 -134 0 -134 0 0 1210 0 1210 145 0 145 0 0
-446z m4572 -263 c188 -48 302 -155 362 -339 42 -128 46 -200 46 -803 l0 -569
-145 0 -145 0 0 528 c0 537 -6 666 -35 753 -22 65 -91 140 -157 170 -47 21
-68 24 -188 24 -135 0 -135 0 -210 -36 -88 -42 -155 -99 -199 -167 l-31 -49 0
-611 0 -612 -145 0 -145 0 0 850 0 850 129 0 129 0 6 -82 c4 -46 9 -99 12
-119 l5 -35 82 81 c90 89 182 142 292 169 89 21 246 20 337 -3z m-2455 -318
c120 -169 223 -307 228 -307 6 0 109 138 230 307 l220 306 173 1 173 0 -316
-420 -317 -420 176 -232 c97 -128 243 -322 326 -430 l149 -198 -169 0 -169 0
-232 320 c-128 176 -235 320 -238 320 -3 0 -109 -144 -236 -320 l-230 -319
-172 -1 -172 0 165 218 c90 119 236 313 325 430 l160 213 -316 419 -316 420
170 0 169 0 219 -307z"/>
<path d="M1416 3699 c-99 -34 -165 -88 -225 -183 l-31 -50 0 -375 0 -376 30
-45 c49 -74 120 -139 189 -173 63 -31 71 -32 186 -32 116 0 123 1 186 32 119
59 193 162 240 338 18 67 22 108 22 250 1 193 -13 276 -63 384 -61 130 -125
193 -236 231 -79 27 -217 27 -298 -1z"/>
</g>
</svg>
